<?xml version="1.0" standalone="no"?>
<!DOCTYPE svg PUBLIC "-//W3C//DTD SVG 20010904//EN"
 "http://www.w3.org/TR/2001/REC-SVG-20010904/DTD/svg10.dtd">
<svg version="1.0" xmlns="http://www.w3.org/2000/svg"
 width="512.000000pt" height="512.000000pt" viewBox="0 0 512.000000 512.000000"
 preserveAspectRatio="xMidYMid meet">
<metadata>
Created by potrace 1.14, written by Peter Selinger 2001-2017
</metadata>
<g transform="translate(0.000000,512.000000) scale(0.100000,-0.100000)"
fill="#000000" stroke="none">
<path d="M2378 5116 c-1 -2 -34 -6 -73 -10 -337 -29 -717 -151 -1019 -326
-492 -283 -891 -740 -1098 -1255 -25 -62 -79 -215 -83 -235 -2 -8 -10 -40 -19
-70 -33 -114 -58 -256 -76 -430 -8 -81 -5 -463 5 -520 3 -19 15 -87 25 -151
50 -295 141 -549 299 -833 36 -67 152 -236 211 -311 259 -325 589 -583 962
-751 166 -74 418 -154 568 -179 19 -3 42 -7 50 -10 15 -4 62 -9 210 -25 110
-11 459 -5 495 10 136 53 177 227 77 327 -54 54 -89 61 -297 58 -217 -3 -320
5 -490 41 -591 121 -1109 491 -1423 1015 -97 161 -205 423 -236 569 -32 150
-46 229 -54 305 -10 91 -9 429 1 475 4 14 8 43 11 65 4 32 23 134 40 210 38
169 145 423 251 595 32 52 61 97 65 100 3 3 30 38 59 79 103 143 268 308 426
426 268 201 553 327 905 400 15 3 75 13 128 21 58 9 401 11 482 2 85 -9 286
-44 299 -53 4 -2 19 -6 34 -9 48 -8 263 -85 342 -121 64 -30 186 -97 270 -148
231 -141 501 -411 658 -659 l37 -58 -288 -1 c-158 0 -298 -2 -312 -5 -40 -7
-103 -59 -127 -105 -47 -87 -18 -195 66 -254 l43 -30 375 -2 c393 -3 413 -1
535 44 152 56 279 176 350 332 52 113 58 169 55 562 l-2 356 -29 42 c-42 61
-113 95 -182 88 -71 -7 -115 -36 -159 -102 -19 -28 -20 -50 -23 -338 l-3 -309
-51 74 c-359 514 -892 883 -1493 1032 -55 14 -116 27 -135 30 -81 13 -168 26
-205 31 -44 6 -451 15 -457 11z"/>
<path d="M2490 4346 c-66 -29 -113 -84 -125 -145 -2 -9 -4 -362 -4 -786 l-1
-770 -378 -378 c-261 -262 -383 -390 -395 -418 -31 -71 -16 -161 36 -218 54
-59 157 -77 231 -41 59 28 877 852 894 900 9 27 11 233 10 885 -3 818 -4 852
-22 880 -26 40 -63 74 -95 87 -36 15 -121 18 -151 4z"/>
<path d="M4839 2250 c-49 -9 -104 -45 -128 -83 -28 -46 -83 -253 -82 -310 1
-91 62 -166 152 -186 77 -17 157 11 203 72 33 43 96 280 89 334 -13 112 -124
194 -234 173z"/>
<path d="M4385 1337 c-35 -16 -79 -61 -160 -162 -66 -82 -85 -122 -85 -179 1
-143 151 -237 283 -177 44 20 47 23 143 141 79 97 96 131 96 192 -1 109 -78
190 -187 195 -36 2 -72 -2 -90 -10z"/>
<path d="M3652 684 c-49 -17 -180 -84 -229 -117 -50 -34 -77 -91 -78 -164 0
-52 4 -68 30 -104 38 -54 103 -89 165 -89 37 0 72 12 159 55 140 69 167 89
196 145 50 98 9 217 -92 269 -37 19 -105 21 -151 5z"/>
</g>
</svg>
